<?xml version="1.0" standalone="no"?>
<!DOCTYPE svg PUBLIC "-//W3C//DTD SVG 20010904//EN"
 "http://www.w3.org/TR/2001/REC-SVG-20010904/DTD/svg10.dtd">
<svg version="1.0" xmlns="http://www.w3.org/2000/svg"
 width="375.000000pt" height="375.000000pt" viewBox="0 0 375.000000 375.000000"
 preserveAspectRatio="xMidYMid meet">
<metadata>
Created by potrace 1.11, written by Peter Selinger 2001-2013
</metadata>
<g transform="translate(0.000000,375.000000) scale(0.100000,-0.100000)"
fill="#000000" stroke="none">
<path d="M438 3735 c-193 -53 -351 -201 -415 -388 l-23 -69 0 -1401 c0 -1523
-3 -1446 56 -1562 63 -124 159 -216 293 -279 l66 -31 1460 0 1460 0 65 31
c169 80 283 212 334 383 14 49 16 196 16 1451 0 1255 -2 1402 -16 1451 -60
203 -222 362 -421 413 -54 14 -216 16 -1444 15 -1100 -1 -1394 -3 -1431 -14z"/>
</g>
</svg>
